<mxfile host="65bd71144e" modified="2020-11-24T23:53:07.463Z" agent="5.0 (Windows NT 10.0; Win64; x64) AppleWebKit/537.36 (KHTML, like Gecko) Code/1.50.1 Chrome/83.0.4103.122 Electron/9.2.1 Safari/537.36" version="13.6.5" etag="XxfGruUKv2qOAaKkr47k">
    <diagram id="2XroiYmfKP3aSL124UD1" name="Page-1">
        <mxGraphModel dx="1204" dy="577" grid="1" gridSize="10" guides="1" tooltips="1" connect="1" arrows="1" fold="1" page="1" pageScale="1" pageWidth="1169" pageHeight="827" math="0" shadow="0">
            <root>
                <mxCell id="0"/>
                <mxCell id="1" parent="0"/>
                <mxCell id="19" style="rounded=0;orthogonalLoop=1;jettySize=auto;html=1;entryX=0;entryY=0.5;entryDx=0;entryDy=0;" edge="1" parent="1" source="2" target="7">
                    <mxGeometry relative="1" as="geometry"/>
                </mxCell>
                <mxCell id="26" style="edgeStyle=none;rounded=0;orthogonalLoop=1;jettySize=auto;html=1;entryX=0;entryY=0;entryDx=93;entryDy=0;entryPerimeter=0;" edge="1" parent="1" source="2" target="24">
                    <mxGeometry relative="1" as="geometry"/>
                </mxCell>
                <mxCell id="2" value="Cliente" style="swimlane;fontStyle=1;align=center;verticalAlign=top;childLayout=stackLayout;horizontal=1;startSize=30;horizontalStack=0;resizeParent=1;resizeParentMax=0;resizeLast=0;collapsible=1;marginBottom=0;fillColor=#0000FF;" vertex="1" parent="1">
                    <mxGeometry x="150" y="70" width="160" height="64" as="geometry"/>
                </mxCell>
                <mxCell id="4" value="" style="line;strokeWidth=1;fillColor=none;align=left;verticalAlign=middle;spacingTop=-1;spacingLeft=3;spacingRight=3;rotatable=0;labelPosition=right;points=[];portConstraint=eastwest;" vertex="1" parent="2">
                    <mxGeometry y="30" width="160" height="8" as="geometry"/>
                </mxCell>
                <mxCell id="5" value="Operation()" style="text;strokeColor=none;fillColor=none;align=left;verticalAlign=top;spacingLeft=4;spacingRight=4;overflow=hidden;rotatable=0;points=[[0,0.5],[1,0.5]];portConstraint=eastwest;" vertex="1" parent="2">
                    <mxGeometry y="38" width="160" height="26" as="geometry"/>
                </mxCell>
                <mxCell id="17" value="return copia de si mesmo" style="shape=note;whiteSpace=wrap;html=1;size=14;verticalAlign=middle;align=center;spacingTop=-6;" vertex="1" parent="1">
                    <mxGeometry x="690" y="360" width="200" height="50" as="geometry"/>
                </mxCell>
                <mxCell id="7" value="Prototype" style="swimlane;fontStyle=1;align=center;verticalAlign=top;childLayout=stackLayout;horizontal=1;startSize=30;horizontalStack=0;resizeParent=1;resizeParentMax=0;resizeLast=0;collapsible=1;marginBottom=0;fillColor=#0000FF;" vertex="1" parent="1">
                    <mxGeometry x="570" y="70" width="160" height="64" as="geometry"/>
                </mxCell>
                <mxCell id="8" value="" style="line;strokeWidth=1;fillColor=none;align=left;verticalAlign=middle;spacingTop=-1;spacingLeft=3;spacingRight=3;rotatable=0;labelPosition=right;points=[];portConstraint=eastwest;" vertex="1" parent="7">
                    <mxGeometry y="30" width="160" height="8" as="geometry"/>
                </mxCell>
                <mxCell id="9" value="Clone()" style="text;strokeColor=none;fillColor=none;align=left;verticalAlign=top;spacingLeft=4;spacingRight=4;overflow=hidden;rotatable=0;points=[[0,0.5],[1,0.5]];portConstraint=eastwest;" vertex="1" parent="7">
                    <mxGeometry y="38" width="160" height="26" as="geometry"/>
                </mxCell>
                <mxCell id="22" style="edgeStyle=none;rounded=0;orthogonalLoop=1;jettySize=auto;html=1;entryX=0.5;entryY=0;entryDx=0;entryDy=0;entryPerimeter=0;" edge="1" parent="1" source="10">
                    <mxGeometry relative="1" as="geometry">
                        <mxPoint x="505" y="360" as="targetPoint"/>
                    </mxGeometry>
                </mxCell>
                <mxCell id="10" value="ConcretePrototype1" style="swimlane;fontStyle=1;align=center;verticalAlign=top;childLayout=stackLayout;horizontal=1;startSize=30;horizontalStack=0;resizeParent=1;resizeParentMax=0;resizeLast=0;collapsible=1;marginBottom=0;fillColor=#0000FF;" vertex="1" parent="1">
                    <mxGeometry x="425" y="210" width="160" height="64" as="geometry"/>
                </mxCell>
                <mxCell id="11" value="" style="line;strokeWidth=1;fillColor=none;align=left;verticalAlign=middle;spacingTop=-1;spacingLeft=3;spacingRight=3;rotatable=0;labelPosition=right;points=[];portConstraint=eastwest;" vertex="1" parent="10">
                    <mxGeometry y="30" width="160" height="8" as="geometry"/>
                </mxCell>
                <mxCell id="12" value="Clone()" style="text;strokeColor=none;fillColor=none;align=left;verticalAlign=top;spacingLeft=4;spacingRight=4;overflow=hidden;rotatable=0;points=[[0,0.5],[1,0.5]];portConstraint=eastwest;" vertex="1" parent="10">
                    <mxGeometry y="38" width="160" height="26" as="geometry"/>
                </mxCell>
                <mxCell id="23" style="edgeStyle=none;rounded=0;orthogonalLoop=1;jettySize=auto;html=1;" edge="1" parent="1" source="13" target="17">
                    <mxGeometry relative="1" as="geometry"/>
                </mxCell>
                <mxCell id="13" value="ConcretePrototype2" style="swimlane;fontStyle=1;align=center;verticalAlign=top;childLayout=stackLayout;horizontal=1;startSize=30;horizontalStack=0;resizeParent=1;resizeParentMax=0;resizeLast=0;collapsible=1;marginBottom=0;fillColor=#0000FF;" vertex="1" parent="1">
                    <mxGeometry x="710" y="210" width="160" height="64" as="geometry"/>
                </mxCell>
                <mxCell id="14" value="" style="line;strokeWidth=1;fillColor=none;align=left;verticalAlign=middle;spacingTop=-1;spacingLeft=3;spacingRight=3;rotatable=0;labelPosition=right;points=[];portConstraint=eastwest;" vertex="1" parent="13">
                    <mxGeometry y="30" width="160" height="8" as="geometry"/>
                </mxCell>
                <mxCell id="15" value="Clone()" style="text;strokeColor=none;fillColor=none;align=left;verticalAlign=top;spacingLeft=4;spacingRight=4;overflow=hidden;rotatable=0;points=[[0,0.5],[1,0.5]];portConstraint=eastwest;" vertex="1" parent="13">
                    <mxGeometry y="38" width="160" height="26" as="geometry"/>
                </mxCell>
                <mxCell id="20" style="edgeStyle=none;rounded=0;orthogonalLoop=1;jettySize=auto;html=1;entryX=0.454;entryY=0.037;entryDx=0;entryDy=0;entryPerimeter=0;" edge="1" parent="1" source="9" target="10">
                    <mxGeometry relative="1" as="geometry"/>
                </mxCell>
                <mxCell id="21" style="edgeStyle=none;rounded=0;orthogonalLoop=1;jettySize=auto;html=1;entryX=0.5;entryY=0;entryDx=0;entryDy=0;" edge="1" parent="1" source="9" target="13">
                    <mxGeometry relative="1" as="geometry"/>
                </mxCell>
                <mxCell id="24" value="p = prototype -&amp;gt; Clone()" style="shape=note;whiteSpace=wrap;html=1;size=14;verticalAlign=middle;align=center;spacingTop=-6;" vertex="1" parent="1">
                    <mxGeometry x="137" y="240" width="200" height="50" as="geometry"/>
                </mxCell>
                <mxCell id="25" value="return copia de si mesmo" style="shape=note;whiteSpace=wrap;html=1;size=14;verticalAlign=middle;align=center;spacingTop=-6;" vertex="1" parent="1">
                    <mxGeometry x="405" y="364" width="200" height="50" as="geometry"/>
                </mxCell>
            </root>
        </mxGraphModel>
    </diagram>
</mxfile>